<svg width="284" height="188" viewBox="0 0 284 188" fill="none" xmlns="http://www.w3.org/2000/svg">
<g filter="url(#filter0_dddd_185_199)">
<mask id="path-1-outside-1_185_199" maskUnits="userSpaceOnUse" x="88" y="68" width="127" height="51" fill="black">
<rect fill="white" x="88" y="68" width="127" height="51"/>
<path d="M94.1442 116.112L88.9602 111.168V99.36L94.1442 94.656V116.112ZM94.0002 71.52V92.976L88.8162 88.32V76.464L94.0002 71.52ZM109.543 118.224L114.487 113.04H126.343L130.999 118.224H109.543ZM108.103 94.656L113.287 99.648V111.408L108.103 116.112V94.656ZM113.671 96.384C112.551 95.488 111.415 94.608 110.263 93.744L113.671 91.2H126.775L130.135 93.744L126.775 96.384H113.671ZM109.495 69.456H130.951L126.199 74.64H114.439L109.495 69.456ZM132.391 71.52V92.976L127.207 88.32V76.464L132.391 71.52ZM139.437 111.12H145.485V117.264H139.437V111.12ZM152.715 118.224L157.659 113.04H169.515L174.171 118.224H152.715ZM151.275 94.656L156.459 99.648V111.408L151.275 116.112V94.656ZM175.707 116.112L170.523 111.168V99.36L175.707 94.656V116.112ZM152.667 69.456H174.123L169.371 74.64H157.611L152.667 69.456ZM151.131 92.976V71.52L156.315 76.176V88.08L151.131 92.976ZM175.563 71.52V92.976L170.379 88.32V76.464L175.563 71.52ZM191.105 118.224L196.049 113.04H207.905L212.561 118.224H191.105ZM189.665 94.656L194.849 99.648V111.408L189.665 116.112V94.656ZM214.097 116.112L208.913 111.168V99.36L214.097 94.656V116.112ZM191.057 69.456H212.513L207.761 74.64H196.001L191.057 69.456ZM189.521 92.976V71.52L194.705 76.176V88.08L189.521 92.976ZM213.953 71.52V92.976L208.769 88.32V76.464L213.953 71.52Z"/>
</mask>
<path d="M94.1442 116.112L88.9602 111.168V99.36L94.1442 94.656V116.112ZM94.0002 71.52V92.976L88.8162 88.32V76.464L94.0002 71.52ZM109.543 118.224L114.487 113.04H126.343L130.999 118.224H109.543ZM108.103 94.656L113.287 99.648V111.408L108.103 116.112V94.656ZM113.671 96.384C112.551 95.488 111.415 94.608 110.263 93.744L113.671 91.2H126.775L130.135 93.744L126.775 96.384H113.671ZM109.495 69.456H130.951L126.199 74.64H114.439L109.495 69.456ZM132.391 71.52V92.976L127.207 88.32V76.464L132.391 71.52ZM139.437 111.12H145.485V117.264H139.437V111.12ZM152.715 118.224L157.659 113.04H169.515L174.171 118.224H152.715ZM151.275 94.656L156.459 99.648V111.408L151.275 116.112V94.656ZM175.707 116.112L170.523 111.168V99.36L175.707 94.656V116.112ZM152.667 69.456H174.123L169.371 74.64H157.611L152.667 69.456ZM151.131 92.976V71.52L156.315 76.176V88.08L151.131 92.976ZM175.563 71.52V92.976L170.379 88.32V76.464L175.563 71.52ZM191.105 118.224L196.049 113.04H207.905L212.561 118.224H191.105ZM189.665 94.656L194.849 99.648V111.408L189.665 116.112V94.656ZM214.097 116.112L208.913 111.168V99.36L214.097 94.656V116.112ZM191.057 69.456H212.513L207.761 74.64H196.001L191.057 69.456ZM189.521 92.976V71.52L194.705 76.176V88.08L189.521 92.976ZM213.953 71.52V92.976L208.769 88.32V76.464L213.953 71.52Z" fill="#00B858"/>
<path d="M94.1442 116.112L93.7991 116.474L94.6442 117.28V116.112H94.1442ZM88.9602 111.168H88.4602V111.382L88.6151 111.53L88.9602 111.168ZM88.9602 99.36L88.6242 98.9897L88.4602 99.1386V99.36H88.9602ZM94.1442 94.656H94.6442V93.5271L93.8082 94.2857L94.1442 94.656ZM94.0002 71.52H94.5002V70.3522L93.6551 71.1582L94.0002 71.52ZM94.0002 92.976L93.6661 93.348L94.5002 94.0972V92.976H94.0002ZM88.8162 88.32H88.3162V88.543L88.4821 88.692L88.8162 88.32ZM88.8162 76.464L88.4711 76.1022L88.3162 76.2499V76.464H88.8162ZM94.4893 115.75L89.3053 110.806L88.6151 111.53L93.7991 116.474L94.4893 115.75ZM89.4602 111.168V99.36H88.4602V111.168H89.4602ZM89.2962 99.7303L94.4802 95.0263L93.8082 94.2857L88.6242 98.9897L89.2962 99.7303ZM93.6442 94.656V116.112H94.6442V94.656H93.6442ZM93.5002 71.52V92.976H94.5002V71.52H93.5002ZM94.3343 92.604L89.1503 87.948L88.4821 88.692L93.6661 93.348L94.3343 92.604ZM89.3162 88.32V76.464H88.3162V88.32H89.3162ZM89.1613 76.8258L94.3453 71.8818L93.6551 71.1582L88.4711 76.1022L89.1613 76.8258ZM109.543 118.224L109.181 117.879L108.375 118.724H109.543V118.224ZM114.487 113.04V112.54H114.273L114.125 112.695L114.487 113.04ZM126.343 113.04L126.715 112.706L126.566 112.54H126.343V113.04ZM130.999 118.224V118.724H132.12L131.371 117.89L130.999 118.224ZM108.103 94.656L108.45 94.2959L107.603 93.4804V94.656H108.103ZM113.287 99.648H113.787V99.4354L113.634 99.2879L113.287 99.648ZM113.287 111.408L113.623 111.778L113.787 111.629V111.408H113.287ZM108.103 116.112H107.603V117.241L108.439 116.482L108.103 116.112ZM113.671 96.384L113.358 96.7745L113.495 96.884H113.671V96.384ZM110.263 93.744L109.964 93.3433L109.428 93.7431L109.963 94.144L110.263 93.744ZM113.671 91.2V90.7H113.505L113.372 90.7993L113.671 91.2ZM126.775 91.2L127.077 90.8014L126.943 90.7H126.775V91.2ZM130.135 93.744L130.444 94.1372L130.953 93.7367L130.437 93.3454L130.135 93.744ZM126.775 96.384V96.884H126.948L127.084 96.7772L126.775 96.384ZM109.495 69.456V68.956H108.327L109.133 69.8011L109.495 69.456ZM130.951 69.456L131.319 69.7939L132.087 68.956H130.951V69.456ZM126.199 74.64V75.14H126.419L126.567 74.9779L126.199 74.64ZM114.439 74.64L114.077 74.9851L114.225 75.14H114.439V74.64ZM132.391 71.52H132.891V70.3522L132.046 71.1582L132.391 71.52ZM132.391 92.976L132.057 93.348L132.891 94.0972V92.976H132.391ZM127.207 88.32H126.707V88.543L126.873 88.692L127.207 88.32ZM127.207 76.464L126.862 76.1022L126.707 76.2499V76.464H127.207ZM109.905 118.569L114.849 113.385L114.125 112.695L109.181 117.879L109.905 118.569ZM114.487 113.54H126.343V112.54H114.487V113.54ZM125.971 113.374L130.627 118.558L131.371 117.89L126.715 112.706L125.971 113.374ZM130.999 117.724H109.543V118.724H130.999V117.724ZM107.756 95.0162L112.94 100.008L113.634 99.2879L108.45 94.2959L107.756 95.0162ZM112.787 99.648V111.408H113.787V99.648H112.787ZM112.951 111.038L107.767 115.742L108.439 116.482L113.623 111.778L112.951 111.038ZM108.603 116.112V94.656H107.603V116.112H108.603ZM113.983 95.9936C112.859 95.0943 111.719 94.2111 110.563 93.344L109.963 94.144C111.111 95.0049 112.243 95.8817 113.358 96.7745L113.983 95.9936ZM110.562 94.1447L113.97 91.6007L113.372 90.7993L109.964 93.3433L110.562 94.1447ZM113.671 91.7H126.775V90.7H113.671V91.7ZM126.473 91.5986L129.833 94.1426L130.437 93.3454L127.077 90.8014L126.473 91.5986ZM129.826 93.3509L126.466 95.9909L127.084 96.7772L130.444 94.1372L129.826 93.3509ZM126.775 95.884H113.671V96.884H126.775V95.884ZM109.495 69.956H130.951V68.956H109.495V69.956ZM130.582 69.1181L125.83 74.3021L126.567 74.9779L131.319 69.7939L130.582 69.1181ZM126.199 74.14H114.439V75.14H126.199V74.14ZM114.801 74.2949L109.857 69.1109L109.133 69.8011L114.077 74.9851L114.801 74.2949ZM131.891 71.52V92.976H132.891V71.52H131.891ZM132.725 92.604L127.541 87.948L126.873 88.692L132.057 93.348L132.725 92.604ZM127.707 88.32V76.464H126.707V88.32H127.707ZM127.552 76.8258L132.736 71.8818L132.046 71.1582L126.862 76.1022L127.552 76.8258ZM139.437 111.12V110.62H138.937V111.12H139.437ZM145.485 111.12H145.985V110.62H145.485V111.12ZM145.485 117.264V117.764H145.985V117.264H145.485ZM139.437 117.264H138.937V117.764H139.437V117.264ZM139.437 111.62H145.485V110.62H139.437V111.62ZM144.985 111.12V117.264H145.985V111.12H144.985ZM145.485 116.764H139.437V117.764H145.485V116.764ZM139.937 117.264V111.12H138.937V117.264H139.937ZM152.715 118.224L152.353 117.879L151.547 118.724H152.715V118.224ZM157.659 113.04V112.54H157.445L157.297 112.695L157.659 113.04ZM169.515 113.04L169.887 112.706L169.738 112.54H169.515V113.04ZM174.171 118.224V118.724H175.292L174.543 117.89L174.171 118.224ZM151.275 94.656L151.622 94.2959L150.775 93.4804V94.656H151.275ZM156.459 99.648H156.959V99.4354L156.806 99.2879L156.459 99.648ZM156.459 111.408L156.795 111.778L156.959 111.629V111.408H156.459ZM151.275 116.112H150.775V117.241L151.611 116.482L151.275 116.112ZM175.707 116.112L175.362 116.474L176.207 117.28V116.112H175.707ZM170.523 111.168H170.023V111.382L170.178 111.53L170.523 111.168ZM170.523 99.36L170.187 98.9897L170.023 99.1386V99.36H170.523ZM175.707 94.656H176.207V93.5271L175.371 94.2857L175.707 94.656ZM152.667 69.456V68.956H151.499L152.305 69.8011L152.667 69.456ZM174.123 69.456L174.491 69.7939L175.259 68.956H174.123V69.456ZM169.371 74.64V75.14H169.591L169.739 74.9779L169.371 74.64ZM157.611 74.64L157.249 74.9851L157.397 75.14H157.611V74.64ZM151.131 92.976H150.631V94.136L151.474 93.3395L151.131 92.976ZM151.131 71.52L151.465 71.148L150.631 70.3989V71.52H151.131ZM156.315 76.176H156.815V75.953L156.649 75.804L156.315 76.176ZM156.315 88.08L156.658 88.4435L156.815 88.2955V88.08H156.315ZM175.563 71.52H176.063V70.3522L175.218 71.1582L175.563 71.52ZM175.563 92.976L175.229 93.348L176.063 94.0972V92.976H175.563ZM170.379 88.32H169.879V88.543L170.045 88.692L170.379 88.32ZM170.379 76.464L170.034 76.1022L169.879 76.2499V76.464H170.379ZM153.077 118.569L158.021 113.385L157.297 112.695L152.353 117.879L153.077 118.569ZM157.659 113.54H169.515V112.54H157.659V113.54ZM169.143 113.374L173.799 118.558L174.543 117.89L169.887 112.706L169.143 113.374ZM174.171 117.724H152.715V118.724H174.171V117.724ZM150.928 95.0162L156.112 100.008L156.806 99.2879L151.622 94.2959L150.928 95.0162ZM155.959 99.648V111.408H156.959V99.648H155.959ZM156.123 111.038L150.939 115.742L151.611 116.482L156.795 111.778L156.123 111.038ZM151.775 116.112V94.656H150.775V116.112H151.775ZM176.052 115.75L170.868 110.806L170.178 111.53L175.362 116.474L176.052 115.75ZM171.023 111.168V99.36H170.023V111.168H171.023ZM170.859 99.7303L176.043 95.0263L175.371 94.2857L170.187 98.9897L170.859 99.7303ZM175.207 94.656V116.112H176.207V94.656H175.207ZM152.667 69.956H174.123V68.956H152.667V69.956ZM173.754 69.1181L169.002 74.3021L169.739 74.9779L174.491 69.7939L173.754 69.1181ZM169.371 74.14H157.611V75.14H169.371V74.14ZM157.973 74.2949L153.029 69.1109L152.305 69.8011L157.249 74.9851L157.973 74.2949ZM151.631 92.976V71.52H150.631V92.976H151.631ZM150.797 71.892L155.981 76.548L156.649 75.804L151.465 71.148L150.797 71.892ZM155.815 76.176V88.08H156.815V76.176H155.815ZM155.971 87.7165L150.787 92.6125L151.474 93.3395L156.658 88.4435L155.971 87.7165ZM175.063 71.52V92.976H176.063V71.52H175.063ZM175.897 92.604L170.713 87.948L170.045 88.692L175.229 93.348L175.897 92.604ZM170.879 88.32V76.464H169.879V88.32H170.879ZM170.724 76.8258L175.908 71.8818L175.218 71.1582L170.034 76.1022L170.724 76.8258ZM191.105 118.224L190.744 117.879L189.938 118.724H191.105V118.224ZM196.049 113.04V112.54H195.835L195.688 112.695L196.049 113.04ZM207.905 113.04L208.277 112.706L208.128 112.54H207.905V113.04ZM212.561 118.224V118.724H213.683L212.933 117.89L212.561 118.224ZM189.665 94.656L190.012 94.2959L189.165 93.4804V94.656H189.665ZM194.849 99.648H195.349V99.4354L195.196 99.2879L194.849 99.648ZM194.849 111.408L195.185 111.778L195.349 111.629V111.408H194.849ZM189.665 116.112H189.165V117.241L190.001 116.482L189.665 116.112ZM214.097 116.112L213.752 116.474L214.597 117.28V116.112H214.097ZM208.913 111.168H208.413V111.382L208.568 111.53L208.913 111.168ZM208.913 99.36L208.577 98.9897L208.413 99.1386V99.36H208.913ZM214.097 94.656H214.597V93.5271L213.761 94.2857L214.097 94.656ZM191.057 69.456V68.956H189.89L190.696 69.8011L191.057 69.456ZM212.513 69.456L212.882 69.7939L213.65 68.956H212.513V69.456ZM207.761 74.64V75.14H207.981L208.13 74.9779L207.761 74.64ZM196.001 74.64L195.64 74.9851L195.787 75.14H196.001V74.64ZM189.521 92.976H189.021V94.136L189.865 93.3395L189.521 92.976ZM189.521 71.52L189.855 71.148L189.021 70.3989V71.52H189.521ZM194.705 76.176H195.205V75.953L195.039 75.804L194.705 76.176ZM194.705 88.08L195.049 88.4435L195.205 88.2955V88.08H194.705ZM213.953 71.52H214.453V70.3522L213.608 71.1582L213.953 71.52ZM213.953 92.976L213.619 93.348L214.453 94.0972V92.976H213.953ZM208.769 88.32H208.269V88.543L208.435 88.692L208.769 88.32ZM208.769 76.464L208.424 76.1022L208.269 76.2499V76.464H208.769ZM191.467 118.569L196.411 113.385L195.688 112.695L190.744 117.879L191.467 118.569ZM196.049 113.54H207.905V112.54H196.049V113.54ZM207.533 113.374L212.189 118.558L212.933 117.89L208.277 112.706L207.533 113.374ZM212.561 117.724H191.105V118.724H212.561V117.724ZM189.319 95.0162L194.503 100.008L195.196 99.2879L190.012 94.2959L189.319 95.0162ZM194.349 99.648V111.408H195.349V99.648H194.349ZM194.513 111.038L189.329 115.742L190.001 116.482L195.185 111.778L194.513 111.038ZM190.165 116.112V94.656H189.165V116.112H190.165ZM214.442 115.75L209.258 110.806L208.568 111.53L213.752 116.474L214.442 115.75ZM209.413 111.168V99.36H208.413V111.168H209.413ZM209.249 99.7303L214.433 95.0263L213.761 94.2857L208.577 98.9897L209.249 99.7303ZM213.597 94.656V116.112H214.597V94.656H213.597ZM191.057 69.956H212.513V68.956H191.057V69.956ZM212.145 69.1181L207.393 74.3021L208.13 74.9779L212.882 69.7939L212.145 69.1181ZM207.761 74.14H196.001V75.14H207.761V74.14ZM196.363 74.2949L191.419 69.1109L190.696 69.8011L195.64 74.9851L196.363 74.2949ZM190.021 92.976V71.52H189.021V92.976H190.021ZM189.187 71.892L194.371 76.548L195.039 75.804L189.855 71.148L189.187 71.892ZM194.205 76.176V88.08H195.205V76.176H194.205ZM194.362 87.7165L189.178 92.6125L189.865 93.3395L195.049 88.4435L194.362 87.7165ZM213.453 71.52V92.976H214.453V71.52H213.453ZM214.287 92.604L209.103 87.948L208.435 88.692L213.619 93.348L214.287 92.604ZM209.269 88.32V76.464H208.269V88.32H209.269ZM209.114 76.8258L214.298 71.8818L213.608 71.1582L208.424 76.1022L209.114 76.8258Z" fill="#00FF7A" mask="url(#path-1-outside-1_185_199)"/>
</g>
<defs>
<filter id="filter0_dddd_185_199" x="0.268356" y="0.155991" width="283.129" height="187.368" filterUnits="userSpaceOnUse" color-interpolation-filters="sRGB">
<feFlood flood-opacity="0" result="BackgroundImageFix"/>
<feColorMatrix in="SourceAlpha" type="matrix" values="0 0 0 0 0 0 0 0 0 0 0 0 0 0 0 0 0 0 127 0" result="hardAlpha"/>
<feOffset/>
<feGaussianBlur stdDeviation="4.35"/>
<feComposite in2="hardAlpha" operator="out"/>
<feColorMatrix type="matrix" values="0 0 0 0 0 0 0 0 0 1 0 0 0 0 0.478633 0 0 0 1 0"/>
<feBlend mode="normal" in2="BackgroundImageFix" result="effect1_dropShadow_185_199"/>
<feColorMatrix in="SourceAlpha" type="matrix" values="0 0 0 0 0 0 0 0 0 0 0 0 0 0 0 0 0 0 127 0" result="hardAlpha"/>
<feOffset dy="4"/>
<feGaussianBlur stdDeviation="2"/>
<feComposite in2="hardAlpha" operator="out"/>
<feColorMatrix type="matrix" values="0 0 0 0 0 0 0 0 0 1 0 0 0 0 0.333333 0 0 0 0.25 0"/>
<feBlend mode="normal" in2="effect1_dropShadow_185_199" result="effect2_dropShadow_185_199"/>
<feColorMatrix in="SourceAlpha" type="matrix" values="0 0 0 0 0 0 0 0 0 0 0 0 0 0 0 0 0 0 127 0" result="hardAlpha"/>
<feOffset/>
<feGaussianBlur stdDeviation="34.65"/>
<feComposite in2="hardAlpha" operator="out"/>
<feColorMatrix type="matrix" values="0 0 0 0 0 0 0 0 0 1 0 0 0 0 0.478633 0 0 0 1 0"/>
<feBlend mode="normal" in2="effect2_dropShadow_185_199" result="effect3_dropShadow_185_199"/>
<feColorMatrix in="SourceAlpha" type="matrix" values="0 0 0 0 0 0 0 0 0 0 0 0 0 0 0 0 0 0 127 0" result="hardAlpha"/>
<feOffset dy="4"/>
<feGaussianBlur stdDeviation="27.45"/>
<feComposite in2="hardAlpha" operator="out"/>
<feColorMatrix type="matrix" values="0 0 0 0 0 0 0 0 0 1 0 0 0 0 0.478431 0 0 0 1 0"/>
<feBlend mode="normal" in2="effect3_dropShadow_185_199" result="effect4_dropShadow_185_199"/>
<feBlend mode="normal" in="SourceGraphic" in2="effect4_dropShadow_185_199" result="shape"/>
</filter>
</defs>
</svg>
